<svg width="2281" height="526" viewBox="0 0 2281 526" fill="none" xmlns="http://www.w3.org/2000/svg">
<path d="M455 404.5C468.807 404.5 480 393.307 480 379.5C480 365.693 468.807 354.5 455 354.5V379.5V404.5ZM770.517 233L745.517 232.983L745.483 282.983L770.483 283L770.5 258L770.517 233ZM623.934 138.042L600.642 147.124L607.727 165.295L627.076 162.843L623.934 138.042ZM147.34 258.003L147.171 283.002L170.596 283.161L172.276 259.796L147.34 258.003ZM458.5 177.5C444.693 177.5 433.5 188.693 433.5 202.5C433.5 216.307 444.693 227.5 458.5 227.5V202.5V177.5ZM455 379.5V354.5C373.497 354.5 306 296.896 306 202.5H281H256C256 326.104 347.503 404.5 455 404.5V379.5ZM146.5 501V476C93.2045 476 50 432.795 50 379.5H25H0C0 460.41 65.5903 526 146.5 526V501ZM25 379.5H50C50 326.205 93.2045 283 146.5 283V258V233C65.5903 233 0 298.59 0 379.5H25ZM892 379.5H867C867 432.795 823.795 476 770.5 476V501V526C851.41 526 917 460.41 917 379.5H892ZM770.5 501V476H146.5V501V526H770.5V501ZM770.5 258L770.483 283L770.643 283L770.659 258L770.676 233L770.517 233L770.5 258ZM770.659 258L770.627 283C823.864 283.068 867 326.247 867 379.5H892H917C917 298.654 851.514 233.104 770.692 233L770.659 258ZM640.5 137V162C696.172 162 741.792 205.138 745.724 259.794L770.659 258L795.595 256.206C789.795 175.586 722.584 112 640.5 112V137ZM623.934 138.042L627.076 162.843C631.461 162.288 635.941 162 640.5 162V137V112C633.835 112 627.256 112.421 620.791 113.24L623.934 138.042ZM458.5 25V50C523.148 50 578.46 90.2371 600.642 147.124L623.934 138.042L647.226 128.96C617.811 53.5213 544.436 0 458.5 0V25ZM147.34 258.003L172.276 259.796C176.207 205.139 221.827 162 277.5 162V137V112C195.415 112 128.203 175.587 122.405 256.209L147.34 258.003ZM146.5 258V283C146.724 283 146.948 283.001 147.171 283.002L147.34 258.003L147.509 233.003C147.173 233.001 146.837 233 146.5 233V258ZM277.5 137V162C281.792 162 286.014 162.255 290.153 162.748L293.112 137.924L296.072 113.1C289.973 112.373 283.775 112 277.5 112V137ZM281 202.5H306C306 182.88 309.692 164.183 316.398 147.023L293.112 137.924L269.827 128.826C260.892 151.692 256 176.554 256 202.5H281ZM293.112 137.924L316.398 147.023C338.605 90.1894 393.89 50 458.5 50V25V0C372.614 0 299.276 53.4582 269.827 128.826L293.112 137.924ZM623.934 353.5H598.934C598.934 424.94 535.304 476 455 476V501V526C553.636 526 648.934 461 648.934 353.5H623.934ZM458.5 202.5V227.5C537.25 227.5 598.934 280.734 598.934 353.5H623.934H648.934C648.934 247.326 558.69 177.5 458.5 177.5V202.5Z" fill="url(#paint0_linear_5_45)"/>
<path d="M1116.94 269C1116.35 261.614 1113.58 255.852 1108.63 251.716C1103.76 247.58 1096.34 245.511 1086.36 245.511C1080.01 245.511 1074.8 246.287 1070.74 247.838C1066.75 249.315 1063.8 251.347 1061.88 253.932C1059.96 256.517 1058.96 259.472 1058.89 262.795C1058.74 265.528 1059.22 268.003 1060.33 270.219C1061.51 272.361 1063.36 274.318 1065.87 276.091C1068.38 277.79 1071.59 279.341 1075.51 280.744C1079.42 282.148 1084.07 283.403 1089.47 284.511L1108.08 288.5C1120.64 291.159 1131.38 294.668 1140.32 299.026C1149.26 303.384 1156.57 308.517 1162.26 314.426C1167.95 320.261 1172.12 326.835 1174.78 334.148C1177.51 341.46 1178.91 349.437 1178.99 358.08C1178.91 373 1175.18 385.631 1167.8 395.972C1160.41 406.312 1149.85 414.179 1136.11 419.571C1122.45 424.963 1106.01 427.659 1086.81 427.659C1067.09 427.659 1049.88 424.741 1035.18 418.906C1020.55 413.071 1009.18 404.097 1001.05 391.983C993 379.795 988.938 364.21 988.864 345.227H1047.36C1047.73 352.17 1049.47 358.006 1052.57 362.733C1055.67 367.46 1060.03 371.043 1065.64 373.48C1071.33 375.918 1078.09 377.136 1085.92 377.136C1092.49 377.136 1098 376.324 1102.43 374.699C1106.86 373.074 1110.22 370.821 1112.51 367.94C1114.8 365.06 1115.98 361.773 1116.06 358.08C1115.98 354.608 1114.84 351.58 1112.62 348.994C1110.48 346.335 1106.93 343.972 1101.99 341.903C1097.04 339.761 1090.35 337.767 1081.93 335.92L1059.33 331.045C1039.24 326.687 1023.39 319.412 1011.8 309.219C1000.28 298.952 994.551 284.955 994.625 267.227C994.551 252.824 998.392 240.23 1006.15 229.446C1013.98 218.588 1024.8 210.131 1038.61 204.074C1052.5 198.017 1068.41 194.989 1086.36 194.989C1104.68 194.989 1120.53 198.054 1133.89 204.185C1147.26 210.315 1157.57 218.957 1164.81 230.111C1172.12 241.19 1175.81 254.153 1175.89 269H1116.94ZM1284.85 428.102C1266.68 428.102 1251.02 424.631 1237.88 417.688C1224.8 410.67 1214.72 400.625 1207.63 387.551C1200.61 374.403 1197.1 358.67 1197.1 340.352C1197.1 322.773 1200.65 307.409 1207.74 294.261C1214.83 281.114 1224.84 270.884 1237.77 263.571C1250.69 256.259 1265.94 252.602 1283.52 252.602C1296.38 252.602 1308.01 254.597 1318.42 258.585C1328.84 262.574 1337.74 268.372 1345.13 275.98C1352.51 283.514 1358.2 292.673 1362.19 303.457C1366.18 314.241 1368.17 326.392 1368.17 339.909V354.091H1216.16V320.409H1311.89C1311.81 315.534 1310.56 311.25 1308.12 307.557C1305.76 303.79 1302.54 300.872 1298.48 298.804C1294.49 296.662 1289.95 295.591 1284.85 295.591C1279.9 295.591 1275.36 296.662 1271.23 298.804C1267.09 300.872 1263.77 303.753 1261.25 307.446C1258.82 311.139 1257.52 315.46 1257.38 320.409V356.75C1257.38 362.216 1258.52 367.091 1260.81 371.375C1263.1 375.659 1266.39 379.02 1270.67 381.457C1274.96 383.895 1280.13 385.114 1286.18 385.114C1290.39 385.114 1294.23 384.523 1297.71 383.341C1301.25 382.159 1304.28 380.46 1306.79 378.244C1309.3 375.955 1311.15 373.222 1312.33 370.045H1368.17C1366.25 381.864 1361.71 392.131 1354.54 400.847C1347.38 409.489 1337.89 416.21 1326.07 421.011C1314.33 425.739 1300.59 428.102 1284.85 428.102ZM1393.13 425V254.818H1452.51V287.17H1454.29C1457.39 275.205 1462.3 266.452 1469.02 260.912C1475.82 255.372 1483.76 252.602 1492.84 252.602C1495.5 252.602 1498.13 252.824 1500.71 253.267C1503.37 253.636 1505.92 254.19 1508.36 254.929V307.114C1505.33 306.08 1501.6 305.304 1497.17 304.787C1492.73 304.27 1488.93 304.011 1485.75 304.011C1479.77 304.011 1474.38 305.378 1469.58 308.111C1464.85 310.77 1461.12 314.537 1458.39 319.412C1455.65 324.213 1454.29 329.864 1454.29 336.364V425H1393.13ZM1705.1 254.818L1647.93 425H1577.02L1519.85 254.818H1584.11L1611.59 367.386H1613.36L1640.84 254.818H1705.1ZM1783.65 198.091V425H1722.5V198.091H1783.65ZM1814.82 425V254.818H1875.98V425H1814.82ZM1845.4 237.091C1837.12 237.091 1830.03 234.358 1824.12 228.892C1818.21 223.426 1815.26 216.852 1815.26 209.17C1815.26 201.489 1818.21 194.915 1824.12 189.449C1830.03 183.983 1837.12 181.25 1845.4 181.25C1853.74 181.25 1860.83 183.983 1866.67 189.449C1872.58 194.915 1875.53 201.489 1875.53 209.17C1875.53 216.852 1872.58 223.426 1866.67 228.892C1860.83 234.358 1853.74 237.091 1845.4 237.091ZM1968.3 329.273V425H1907.14V254.818H1965.19V287.17H1966.97C1970.66 276.386 1977.16 267.929 1986.47 261.798C1995.85 255.668 2006.78 252.602 2019.26 252.602C2031.3 252.602 2041.75 255.372 2050.62 260.912C2059.55 266.378 2066.46 273.912 2071.34 283.514C2076.28 293.116 2078.72 304.085 2078.65 316.42V425H2017.49V329.273C2017.56 320.852 2015.42 314.241 2011.06 309.44C2006.78 304.639 2000.8 302.239 1993.11 302.239C1988.09 302.239 1983.7 303.347 1979.93 305.562C1976.24 307.705 1973.39 310.807 1971.4 314.869C1969.4 318.858 1968.37 323.659 1968.3 329.273ZM2190.83 492.364C2173.77 492.364 2159.14 489.926 2146.95 485.051C2134.84 480.25 2125.42 473.602 2118.7 465.108C2112.05 456.688 2108.32 447.011 2107.51 436.08H2166.45C2167.04 439.699 2168.52 442.616 2170.88 444.832C2173.25 447.048 2176.28 448.636 2179.97 449.597C2183.74 450.631 2187.95 451.148 2192.6 451.148C2200.5 451.148 2207.04 449.227 2212.21 445.386C2217.46 441.545 2220.08 434.602 2220.08 424.557V395.75H2218.31C2216.09 401.511 2212.69 406.423 2208.11 410.486C2203.53 414.474 2198.03 417.54 2191.6 419.682C2185.18 421.75 2178.12 422.784 2170.44 422.784C2158.33 422.784 2147.17 419.977 2136.98 414.364C2126.86 408.75 2118.74 399.849 2112.61 387.662C2106.55 375.474 2103.52 359.557 2103.52 339.909C2103.52 319.375 2106.7 302.682 2113.05 289.83C2119.48 276.977 2127.75 267.56 2137.87 261.577C2148.06 255.594 2158.77 252.602 2170 252.602C2178.42 252.602 2185.81 254.08 2192.16 257.034C2198.51 259.915 2203.83 263.793 2208.11 268.668C2212.4 273.469 2215.65 278.75 2217.86 284.511H2219.19V254.818H2280.35V424.557C2280.35 438.96 2276.62 451.185 2269.16 461.23C2261.77 471.349 2251.36 479.068 2237.92 484.386C2224.47 489.705 2208.78 492.364 2190.83 492.364ZM2193.04 379.352C2198.66 379.352 2203.46 377.801 2207.45 374.699C2211.51 371.523 2214.61 367.017 2216.75 361.182C2218.97 355.273 2220.08 348.182 2220.08 339.909C2220.08 331.489 2218.97 324.287 2216.75 318.304C2214.61 312.247 2211.51 307.631 2207.45 304.455C2203.46 301.205 2198.66 299.58 2193.04 299.58C2187.43 299.58 2182.63 301.205 2178.64 304.455C2174.73 307.631 2171.7 312.247 2169.56 318.304C2167.49 324.287 2166.45 331.489 2166.45 339.909C2166.45 348.33 2167.49 355.494 2169.56 361.403C2171.7 367.239 2174.73 371.707 2178.64 374.81C2182.63 377.838 2187.43 379.352 2193.04 379.352Z" fill="white"/>
<defs>
<linearGradient id="paint0_linear_5_45" x1="25" y1="263" x2="892" y2="263" gradientUnits="userSpaceOnUse">
<stop stop-color="#9810FA"/>
<stop offset="1" stop-color="#155DFC"/>
</linearGradient>
</defs>
</svg>
